<?xml version="1.0" encoding="UTF-8" standalone="no"?>
<svg
   xmlns:dc="http://purl.org/dc/elements/1.1/"
   xmlns:cc="http://creativecommons.org/ns#"
   xmlns:rdf="http://www.w3.org/1999/02/22-rdf-syntax-ns#"
   xmlns:svg="http://www.w3.org/2000/svg"
   xmlns="http://www.w3.org/2000/svg"
   xmlns:sodipodi="http://sodipodi.sourceforge.net/DTD/sodipodi-0.dtd"
   xmlns:inkscape="http://www.inkscape.org/namespaces/inkscape"
   version="1"
   viewBox="0 0 256 256"
   id="svg897"
   sodipodi:docname="icon.svg"
   width="256"
   height="256"
   inkscape:version="1.0.2 (e86c870879, 2021-01-15)">
  <metadata
     id="metadata903">
    <rdf:RDF>
      <cc:Work
         rdf:about="">
        <dc:format>image/svg+xml</dc:format>
        <dc:type
           rdf:resource="http://purl.org/dc/dcmitype/StillImage" />
        <dc:title></dc:title>
      </cc:Work>
    </rdf:RDF>
  </metadata>
  <defs
     id="defs901" />
  <sodipodi:namedview
     pagecolor="#ffffff"
     bordercolor="#666666"
     borderopacity="1"
     objecttolerance="10"
     gridtolerance="10"
     guidetolerance="10"
     inkscape:pageopacity="0"
     inkscape:pageshadow="2"
     inkscape:window-width="3814"
     inkscape:window-height="2114"
     id="namedview899"
     showgrid="false"
     width="256px"
     inkscape:pagecheckerboard="true"
     inkscape:zoom="4.3560501"
     inkscape:cx="149.82617"
     inkscape:cy="156.49886"
     inkscape:window-x="12"
     inkscape:window-y="32"
     inkscape:window-maximized="1"
     inkscape:current-layer="svg897" />
  <g
     id="g939"
     transform="matrix(0.88595988,0.277706,-0.26367438,0.93310688,50.410612,-85.841391)">
    <path
       id="path933"
       style="fill:#ffd012;fill-opacity:1;stroke-width:0.793607"
       d="M 222.9833,50.312515 C 243.72178,125.89852 205.80909,156.18901 120.727,186.98109 88.723574,198.56341 38.007094,202.81562 5.9941433,196.92675 5.883229,198.57107 2.9080347,205.03969 5.7194365,207.56809 45.00461,242.89875 100.73043,252.15825 150.31035,234.21412 225.33085,207.06269 271.66863,150.02132 244.58823,73.094854 235.89234,54.271021 236.37614,56.872184 222.9833,50.312515 Z"
       sodipodi:nodetypes="cccsccc" />
    <path
       id="path935"
       style="fill:#f0c300;fill-opacity:1;stroke-width:0.80194"
       d="m 225.4803,60.513479 c -6.77068,99.911401 -35.78517,96.809011 -100.7531,124.505751 -24.10929,8.72519 -89.477221,18.29612 -118.6000653,11.94117 -1.6188705,-0.35322 -1.632099,5.53703 -1.5401701,6.6078 38.1020434,24.00589 83.6206004,23.91813 126.1197654,8.53748 76.60415,-27.72354 125.11816,-65.38692 98.03755,-142.314023 -1.54365,-3.541754 -0.77882,-6.476567 -3.26398,-9.278178 z"
       sodipodi:nodetypes="ccscccc" />
    <path
       id="path937"
       style="fill:#6a2700;fill-opacity:1;stroke-width:0.503047"
       d="m 222.89083,32.04332 7.98759,0.888059 c 0.64989,0.07225 1.1928,0.587811 1.184,1.255791 0,0 5.31147,21.954748 9.61437,30.575544 -0.0428,0.207466 -0.93428,0.226626 -1.08449,0.195344 -0.94481,-0.196771 -4.65662,-0.981552 -6.46491,-0.796853 -3.34344,-1.370157 -2.15501,3.087901 -2.31971,2.684158 -0.0125,-2.012483 -13.68262,-23.233738 -8.91688,-34.802039 z"
       sodipodi:nodetypes="ssscscccs" />
  </g>
  <g
     id="g931"
     transform="matrix(0.90070865,0.21883839,-0.20778117,0.94864051,43.960879,-35.3214)">
    <path
       id="path925"
       style="fill:#ffd21e;fill-opacity:1;stroke-width:0.793607"
       d="M 222.04042,24.536896 C 242.7789,100.1229 181.48073,158.09563 96.398647,188.88771 64.395218,200.47003 38.007094,202.81562 5.9941433,196.92675 5.883229,198.57107 2.9080347,205.03969 5.7194365,207.56809 45.00461,242.89875 100.73043,252.15825 150.31035,234.21412 c 75.0205,-27.15143 120.4154,-109.96842 93.335,-186.894885 -8.69589,-18.823833 -8.21209,-16.22267 -21.60493,-22.782339 z"
       sodipodi:nodetypes="cccsccc" />
    <path
       id="path927"
       style="fill:#f6c400;fill-opacity:1;stroke-width:0.80194"
       d="m 224.79356,26.537336 c -6.77068,99.911404 -58.80448,133.021294 -123.77241,160.718034 -24.109283,8.72519 -65.771171,16.05998 -94.8940153,9.70503 -1.6188705,-0.35322 -1.632099,5.53703 -1.5401701,6.6078 38.1020434,24.00589 83.6206004,23.91813 126.1197654,8.53748 76.60415,-27.72354 130.57421,-95.79484 103.4936,-172.721947 -1.54365,-3.541754 -6.92161,-10.044786 -9.40677,-12.846397 z"
       sodipodi:nodetypes="ccscccc" />
    <path
       id="path929"
       style="fill:#773000;fill-opacity:1;stroke-width:0.503047"
       d="m 215.34879,-2.0045621 7.98759,0.8880592 c 0.64989,0.072255 1.1928,0.58781057 1.184,1.25579077 0,0 5.31147,21.95474813 9.61437,30.57554413 -0.0428,0.207466 -0.93428,0.226626 -1.08449,0.195344 -0.94481,-0.196771 -4.65662,-0.981552 -6.46491,-0.796853 -3.34344,-1.370157 -2.15501,3.087901 -2.31971,2.684158 -0.0125,-2.012483 -13.68262,-23.2337379 -8.91688,-34.802039 z"
       sodipodi:nodetypes="ssscscccs" />
  </g>
  <g
     id="g923"
     transform="matrix(0.92415,0.02095525,-0.01989645,0.9733293,24.570556,1.8223594)">
    <path
       id="path907"
       style="fill:#ffd42a;stroke-width:0.793607"
       d="M 224.79356,26.537336 C 245.53204,102.12334 181.48073,158.09563 96.398647,188.88771 64.395218,200.47003 38.007094,202.81562 5.9941433,196.92675 5.883229,198.57107 2.9080347,205.03969 5.7194365,207.56809 45.00461,242.89875 100.73043,252.15825 150.31035,234.21412 225.33085,207.06269 270.72575,124.2457 243.64535,47.319235 237.7058,30.445936 238.1864,33.097005 224.79356,26.537336 Z"
       sodipodi:nodetypes="cccsccc" />
    <path
       id="circle909"
       style="fill:#ffcc00;stroke-width:0.80194"
       d="m 224.79356,26.537336 c -6.77068,99.911404 -58.80448,133.021294 -123.77241,160.718034 -24.109283,8.72519 -65.771171,16.05998 -94.8940153,9.70503 -1.6188705,-0.35322 -1.632099,5.53703 -1.5401701,6.6078 38.1020434,24.00589 83.6206004,23.91813 126.1197654,8.53748 76.60415,-27.72354 130.57421,-95.79484 103.4936,-172.721947 -1.54365,-3.541754 -6.92161,-10.044786 -9.40677,-12.846397 z"
       sodipodi:nodetypes="ccscccc" />
    <path
       id="rect917"
       style="fill:#803300;stroke-width:0.503047"
       d="m 226.76289,2.4098186 7.98759,0.8880592 c 0.64988,0.072266 1.1928,0.5878106 1.184,1.2557908 0,0 -2.08007,21.0935804 2.22283,29.7143764 -0.0428,0.207466 -0.93428,0.226626 -1.08449,0.195344 -0.94481,-0.196771 -4.65662,-0.981552 -6.46491,-0.796853 -3.34344,-1.370157 -6.17757,-0.465312 -6.34227,-0.869055 -0.0125,-2.012483 -2.26852,-18.819357 2.49722,-30.3876583 z"
       sodipodi:nodetypes="ssscscccs" />
  </g>
</svg>
