<svg xmlns="http://www.w3.org/2000/svg" version="1" viewBox="0 0 719 417">
  <path fill="#b6f2a5" d="M317 20A317 317 0 0 0 0 337a317 317 0 0 0 10 80h614a317 317 0 0 0 11-80A317 317 0 0 0 317 20z"/>
  <path fill="#fff" d="M323 283A476 317 0 0 0 2 367a317 317 0 0 0 9 50h613a317 317 0 0 0 9-56 476 317 0 0 0-310-78z"/>
  <path fill="#323231" d="M323 314A476 317 0 0 0 5 395a317 317 0 0 0 6 22h613a317 317 0 0 0 6-28 476 317 0 0 0-307-75zM230 101l11-5 86 166-25 12z"/>
  <path fill="#fff" d="M317 247a50 50 0 0 0-49 50 50 50 0 0 0 1 12h96a50 50 0 0 0 2-12 50 50 0 0 0-50-50z"/>
  <path fill="#323231" d="M301 40h33v57h-33zM480 87l27 20-33 46-27-20zM597 231l11 32-55 17-10-31zM128 107l26-20 34 46-27 20zM27 263l10-32 54 18-10 31z"/>
</svg>
